<svg width="41" height="41" viewBox="0 0 41 41" fill="none" xmlns="http://www.w3.org/2000/svg">
<path d="M20.5 41C31.8218 41 41 31.8218 41 20.5C41 9.17816 31.8218 0 20.5 0C9.17816 0 0 9.17816 0 20.5C0 31.8218 9.17816 41 20.5 41Z" fill="black"/>
<path d="M27.4087 13.0427C27.4733 14.3018 26.8599 15.5609 25.9883 16.8845C26.6985 12.5908 25.278 7.78054 19.5639 5.55298C20.0481 7.36085 18.8859 9.58841 17.756 12.0097C17.078 11.2349 16.3032 10.4923 15.367 9.78211C15.819 15.7868 2.64733 21.7916 13.3332 32.0577C13.3332 32.0577 14.0434 32.5097 15.3024 32.9616C15.2702 32.9294 15.2379 32.8971 15.2056 32.8648C12.9135 30.379 11.6544 25.2459 16.0127 21.8561C15.9481 22.6955 16.3678 23.5026 16.9489 24.342C16.4969 21.5656 17.4009 18.4341 21.1135 16.9813C20.7906 18.1435 21.5654 19.5963 22.2757 21.1782C22.6954 20.6616 23.2119 20.1774 23.8253 19.7254C23.5993 22.9215 29.5395 26.2144 27.4087 31.0892C27.8284 30.7664 28.2481 30.4112 28.6355 29.9916C32.1544 26.1821 34.0914 18.2727 27.4087 13.0427Z" fill="#FFC700"/>
</svg>
