<svg width="90" height="23" viewBox="0 0 90 23" fill="none" xmlns="http://www.w3.org/2000/svg">
<path fill-rule="evenodd" clip-rule="evenodd" d="M17.6073 20.9627H12.0436H6.48H6.02182L5.79273 20.5684L3.01091 15.7384L0.22909 10.8756L0 10.4813L0.22909 10.1199L3.01091 5.257L5.79273 0.427L6.02182 0.0327148H6.48H12.0436H17.6073H18.0327L18.2618 0.427L21.0436 5.257L21.4364 5.947H19.6691L17.1491 1.577H12.0436H6.90545L4.35273 6.04557L1.8 10.4813L4.35273 14.9499L6.90545 19.4184H12.0436H17.1491L19.7345 14.9499L19.7673 14.8841H21.5345L21.0436 15.7384L18.2618 20.5684L18.0327 20.9627H17.6073Z" fill="#D24A43"/>
<path fill-rule="evenodd" clip-rule="evenodd" d="M12.8619 13.1098C12.8619 13.1426 12.8619 13.1755 12.8292 13.2083C12.7964 13.2412 12.7637 13.2741 12.731 13.2741C12.6655 13.3069 12.6001 13.3069 12.5346 13.3069C12.4364 13.3069 12.3383 13.3069 12.2073 13.3069C12.0764 13.3069 11.9455 13.3069 11.8801 13.3069C11.7819 13.3069 11.7164 13.2741 11.6837 13.2741C11.6182 13.2412 11.5855 13.2412 11.5855 13.2083C11.5528 13.1755 11.5528 13.1426 11.5528 13.1098V8.14835C11.5528 8.11549 11.5528 8.08263 11.5855 8.04977C11.6183 8.01692 11.651 7.98406 11.6837 7.98406C11.7492 7.9512 11.8146 7.9512 11.8801 7.9512C11.9783 7.9512 12.0764 7.91835 12.2073 7.91835C12.3383 7.91835 12.4692 7.91834 12.5346 7.9512C12.6328 7.9512 12.6983 7.98406 12.731 7.98406C12.7964 8.01692 12.8292 8.01692 12.8292 8.04977C12.8619 8.08263 12.8619 8.11549 12.8619 8.14835V13.1098ZM12.9928 6.47263C12.9928 6.76834 12.9273 6.93263 12.8292 7.06406C12.6982 7.16263 12.5019 7.22835 12.1746 7.22835C11.8473 7.22835 11.651 7.16263 11.5528 7.06406C11.4546 6.96549 11.3892 6.76835 11.3892 6.50549C11.3892 6.20978 11.4546 6.01263 11.5528 5.91406C11.651 5.81549 11.8801 5.74977 12.2073 5.74977C12.5019 5.74977 12.731 5.81549 12.8292 5.91406C12.9273 6.01263 12.9928 6.17692 12.9928 6.47263ZM16.0037 12.4855C16.0037 12.8141 15.9382 13.0769 15.8401 13.1755C15.7092 13.3069 15.5128 13.3398 15.1855 13.3398C14.891 13.3398 14.6619 13.2741 14.531 13.1755C14.4001 13.0441 14.3673 12.8469 14.3673 12.5183C14.3673 12.1569 14.4328 11.9269 14.531 11.8283C14.6619 11.6969 14.8583 11.6641 15.1855 11.6641C15.4801 11.6641 15.7092 11.7298 15.8073 11.8283C15.9383 11.9269 16.0037 12.1569 16.0037 12.4855ZM20.9783 11.6969C20.9783 11.9926 20.9128 12.2226 20.8146 12.4526C20.7164 12.6826 20.5528 12.8469 20.3564 12.9783C20.1601 13.1098 19.931 13.2412 19.6692 13.3069C19.4073 13.3726 19.1128 13.4055 18.8183 13.4055C18.6219 13.4055 18.4582 13.4055 18.2946 13.3726C18.131 13.3398 17.9673 13.3069 17.8364 13.2741C17.7055 13.2412 17.6073 13.1755 17.5092 13.1426C17.411 13.1098 17.3455 13.0441 17.3128 13.0112C17.2801 12.9783 17.2473 12.9126 17.2146 12.8141C17.1819 12.7483 17.1819 12.6169 17.1819 12.4526C17.1819 12.3541 17.1819 12.2555 17.1819 12.1898C17.1819 12.1241 17.2146 12.0583 17.2146 12.0255C17.2146 11.9926 17.2473 11.9598 17.2801 11.9598C17.3128 11.9598 17.3455 11.9269 17.3783 11.9269C17.411 11.9269 17.4764 11.9598 17.5419 11.9926C17.6073 12.0255 17.7055 12.0912 17.8364 12.1569C17.9673 12.2226 18.0983 12.2555 18.2619 12.3212C18.4255 12.3869 18.5892 12.3869 18.7855 12.3869C18.9164 12.3869 19.0146 12.3869 19.1128 12.3541C19.211 12.3212 19.3092 12.2883 19.3746 12.2555C19.4401 12.2226 19.5055 12.1569 19.5382 12.0583C19.571 11.9926 19.6037 11.8941 19.6037 11.7955C19.6037 11.6969 19.571 11.5983 19.5055 11.4998C19.4401 11.4341 19.3419 11.3355 19.2437 11.3026C19.1455 11.2369 19.0146 11.2041 18.851 11.1383C18.7201 11.0726 18.5564 11.0398 18.4255 10.9741C18.2619 10.9083 18.131 10.8426 18.0001 10.7441C17.8692 10.6783 17.7383 10.5798 17.6073 10.4483C17.5092 10.3169 17.411 10.1855 17.3455 10.0212C17.2801 9.85692 17.2473 9.65977 17.2473 9.42977C17.2473 9.19977 17.2801 8.96977 17.3783 8.77263C17.4764 8.57549 17.6073 8.4112 17.771 8.27977C17.9346 8.14834 18.1637 8.01692 18.3928 7.9512C18.6546 7.88549 18.9164 7.81978 19.2437 7.81978C19.4073 7.81978 19.5382 7.81977 19.7019 7.85263C19.8328 7.88549 19.9964 7.91834 20.0946 7.9512C20.2255 7.98406 20.3237 8.01692 20.3892 8.04977C20.4546 8.08263 20.5201 8.11549 20.5528 8.14835C20.5855 8.1812 20.6183 8.21406 20.6183 8.24692C20.6183 8.27978 20.651 8.31263 20.651 8.34549C20.651 8.37834 20.651 8.44406 20.6837 8.47692C20.6837 8.54263 20.6837 8.60835 20.6837 8.70692C20.6837 8.80549 20.6837 8.90406 20.6837 8.93692C20.6837 9.00263 20.6837 9.03549 20.651 9.1012C20.651 9.13406 20.6182 9.16691 20.5855 9.16691C20.5528 9.16691 20.5528 9.19977 20.5201 9.19977C20.4873 9.19977 20.4219 9.16692 20.3564 9.13406C20.291 9.1012 20.1928 9.06834 20.0946 9.00263C19.9964 8.96977 19.8655 8.90406 19.7346 8.8712C19.6037 8.83835 19.4401 8.80549 19.2437 8.80549C19.1128 8.80549 19.0146 8.80549 18.9164 8.83834C18.8183 8.8712 18.7528 8.90406 18.6873 8.93692C18.6219 8.96977 18.5892 9.03549 18.5564 9.1012C18.5237 9.16692 18.5237 9.23263 18.5237 9.29835C18.5237 9.42978 18.5564 9.49549 18.6219 9.59406C18.6873 9.65977 18.7855 9.72549 18.8837 9.7912C18.9819 9.85692 19.1455 9.92263 19.2764 9.95549C19.4073 10.0212 19.571 10.0541 19.7346 10.1198C19.8983 10.1855 20.0292 10.2512 20.1928 10.3498C20.3237 10.4155 20.4546 10.5469 20.5855 10.6455C20.7164 10.7769 20.7819 10.9083 20.8473 11.0726C20.9455 11.2698 20.9783 11.4669 20.9783 11.6969ZM26.3128 13.1426C26.3128 13.2083 26.2801 13.2412 26.2473 13.2741C26.2146 13.3069 26.1492 13.3398 26.0837 13.3398C26.0182 13.3398 25.8873 13.3726 25.7237 13.3726C25.5601 13.3726 25.4292 13.3726 25.3637 13.3398C25.2983 13.3398 25.2328 13.3069 25.2001 13.2741C25.1673 13.2412 25.1673 13.2083 25.1673 13.1426V12.7483C24.971 12.9783 24.7419 13.1426 24.4801 13.2412C24.2183 13.3726 23.9237 13.4383 23.6292 13.4383C23.3673 13.4383 23.1383 13.4055 22.9092 13.3398C22.6801 13.2741 22.5164 13.1755 22.3528 13.0441C22.1892 12.9126 22.0582 12.7483 21.9928 12.5512C21.8946 12.3541 21.8619 12.1241 21.8619 11.8612C21.8619 11.5655 21.9273 11.3355 22.0255 11.1055C22.1237 10.8755 22.3201 10.7112 22.5164 10.5798C22.7455 10.4483 23.0073 10.3498 23.3346 10.2841C23.6619 10.2183 24.0546 10.1855 24.4801 10.1855H24.971V9.88978C24.971 9.72549 24.971 9.59406 24.9382 9.49549C24.9055 9.36406 24.8401 9.26549 24.7746 9.19977C24.7092 9.13406 24.611 9.06835 24.4801 9.03549C24.3492 9.00263 24.2182 8.96978 24.0219 8.96978C23.7928 8.96978 23.5964 9.00263 23.4001 9.03549C23.2037 9.1012 23.0401 9.13406 22.9092 9.19977C22.7783 9.26549 22.6473 9.3312 22.5492 9.36406C22.451 9.42977 22.3855 9.42977 22.3201 9.42977C22.2873 9.42977 22.2546 9.42978 22.2219 9.39692C22.1892 9.36406 22.1564 9.3312 22.1564 9.29835C22.1237 9.26549 22.1237 9.19978 22.1237 9.13406C22.1237 9.06835 22.091 8.96978 22.091 8.90406C22.091 8.77263 22.091 8.70692 22.1237 8.6412C22.1564 8.57549 22.1892 8.50978 22.2219 8.47692C22.2873 8.4112 22.3528 8.37835 22.4837 8.31263C22.6146 8.24692 22.7783 8.1812 22.9419 8.14835C23.1055 8.08263 23.3019 8.04977 23.4983 8.01692C23.6946 7.98406 23.9237 7.9512 24.1201 7.9512C24.5128 7.9512 24.8401 7.98406 25.1019 8.04977C25.3637 8.11549 25.5928 8.24692 25.7892 8.4112C25.9528 8.57549 26.0837 8.77263 26.1819 9.03549C26.2473 9.29835 26.3128 9.59406 26.3128 9.92263V13.1426ZM24.9382 11.0069H24.4146C24.1855 11.0069 23.9892 11.0398 23.8255 11.0398C23.6619 11.0726 23.531 11.1383 23.4328 11.2041C23.3346 11.2698 23.2692 11.3355 23.2037 11.4341C23.171 11.5326 23.1382 11.6312 23.1382 11.7626C23.1382 11.9598 23.2037 12.1241 23.3346 12.2555C23.4655 12.3869 23.6619 12.4198 23.891 12.4198C24.0873 12.4198 24.251 12.3541 24.4146 12.2555C24.5783 12.1569 24.7419 11.9926 24.9055 11.8283V11.0069H24.9382ZM30.731 6.27549C30.731 6.37406 30.731 6.47263 30.731 6.53834C30.731 6.60406 30.6983 6.66977 30.6983 6.70263C30.6983 6.73549 30.6655 6.76835 30.6328 6.76835C30.6001 6.76835 30.6001 6.8012 30.5673 6.8012C30.5346 6.8012 30.5019 6.8012 30.4692 6.76835C30.4364 6.76835 30.4037 6.73549 30.3382 6.73549C30.3055 6.73549 30.2401 6.70263 30.1746 6.70263C30.1092 6.70263 30.0437 6.66978 29.9455 6.66978C29.8473 6.66978 29.7492 6.66977 29.6837 6.70263C29.6182 6.73549 29.5528 6.76834 29.5201 6.86692C29.4873 6.93263 29.4219 7.0312 29.4219 7.12977C29.3892 7.22834 29.3892 7.35977 29.3892 7.52406V7.98406H30.3055C30.3383 7.98406 30.371 7.98406 30.4037 8.01692C30.4364 8.04977 30.4692 8.04977 30.4692 8.11549C30.5019 8.14834 30.5019 8.21406 30.5019 8.27977C30.5019 8.34549 30.5019 8.44406 30.5019 8.54263C30.5019 8.73977 30.4692 8.90406 30.4364 8.96978C30.4037 9.06835 30.3383 9.1012 30.2728 9.1012H29.3564V13.1098C29.3564 13.1426 29.3564 13.1755 29.3237 13.2083C29.291 13.2412 29.2583 13.2741 29.2255 13.2741C29.1601 13.3069 29.0946 13.3069 28.9964 13.3069C28.8983 13.3069 28.8001 13.3069 28.6692 13.3069C28.5383 13.3069 28.4073 13.3069 28.3419 13.3069C28.2437 13.3069 28.1782 13.2741 28.1128 13.2741C28.0473 13.2412 28.0146 13.2412 28.0146 13.2083C27.9819 13.1755 27.9819 13.1426 27.9819 13.1098V9.1012H27.3601C27.2946 9.1012 27.2292 9.06835 27.1964 8.96978C27.1637 8.8712 27.131 8.73977 27.131 8.54263C27.131 8.44406 27.131 8.34549 27.131 8.27977C27.131 8.21406 27.1637 8.14834 27.1637 8.11549C27.1964 8.08263 27.1964 8.04977 27.2292 8.01692C27.2619 7.98406 27.2946 7.98406 27.3273 7.98406H27.9492V7.55692C27.9492 7.22835 27.9819 6.93263 28.0473 6.66978C28.1128 6.40692 28.211 6.20977 28.3746 6.04549C28.5055 5.8812 28.7019 5.74977 28.931 5.6512C29.1601 5.55263 29.4219 5.51978 29.7164 5.51978C29.8473 5.51978 30.011 5.51977 30.1419 5.55263C30.2728 5.58549 30.371 5.61835 30.4364 5.61835C30.5019 5.6512 30.5673 5.68406 30.6001 5.68406C30.6328 5.71692 30.6328 5.74978 30.6655 5.78263C30.6982 5.81549 30.6983 5.8812 30.6983 5.94692C30.731 6.04549 30.731 6.14406 30.731 6.27549ZM35.8037 10.4812C35.8037 10.6455 35.771 10.7769 35.7055 10.8426C35.6401 10.9083 35.5419 10.9741 35.3783 10.9741H32.3673C32.3673 11.1712 32.4001 11.3683 32.4328 11.5326C32.4655 11.6969 32.5637 11.8612 32.6619 11.9598C32.7601 12.0912 32.9237 12.1569 33.0873 12.2226C33.251 12.2883 33.4473 12.3212 33.7092 12.3212C33.9383 12.3212 34.1673 12.2883 34.3637 12.2555C34.5601 12.2226 34.7237 12.1898 34.8546 12.1241C34.9855 12.0912 35.1164 12.0583 35.1819 11.9926C35.2801 11.9598 35.3455 11.9269 35.411 11.9269C35.4437 11.9269 35.4764 11.9269 35.5092 11.9598C35.5419 11.9598 35.5419 11.9926 35.5746 12.0255C35.5746 12.0583 35.6073 12.0912 35.6073 12.1569C35.6073 12.2226 35.6073 12.2883 35.6073 12.3869C35.6073 12.4526 35.6073 12.5512 35.6073 12.5841C35.6073 12.6498 35.6073 12.6826 35.5746 12.7155C35.5746 12.7483 35.5419 12.7812 35.5419 12.8141C35.5419 12.8469 35.5092 12.8798 35.4764 12.8798C35.4437 12.9126 35.3783 12.9455 35.2801 12.9783C35.1819 13.0112 35.051 13.0769 34.8546 13.1098C34.691 13.1426 34.4946 13.1755 34.2983 13.2083C34.0692 13.2412 33.8401 13.2741 33.611 13.2741C33.1855 13.2741 32.7928 13.2083 32.4655 13.1098C32.1383 13.0112 31.8764 12.8469 31.6473 12.6169C31.4182 12.3869 31.2546 12.0912 31.1564 11.7626C31.0583 11.4012 30.9928 11.0069 30.9928 10.5469C30.9928 10.1198 31.0583 9.72549 31.1564 9.36406C31.2546 9.00263 31.451 8.70692 31.6473 8.47692C31.8764 8.21406 32.1383 8.04978 32.4328 7.91835C32.7601 7.78692 33.0873 7.7212 33.4801 7.7212C33.9055 7.7212 34.2328 7.78692 34.5273 7.91835C34.8219 8.04978 35.051 8.21406 35.2473 8.4112C35.4437 8.6412 35.5746 8.8712 35.6728 9.16691C35.771 9.46263 35.8037 9.7912 35.8037 10.1198V10.4812ZM34.4292 10.0869C34.4292 9.69263 34.3637 9.39691 34.2001 9.16691C34.0364 8.93691 33.7746 8.83834 33.4146 8.83834C33.251 8.83834 33.0873 8.8712 32.9564 8.93692C32.8255 9.00263 32.7273 9.1012 32.6292 9.19977C32.531 9.29835 32.4655 9.46263 32.4328 9.59406C32.4001 9.75834 32.3673 9.92263 32.3673 10.0869H34.4292Z" fill="#201600"/>
<path fill-rule="evenodd" clip-rule="evenodd" d="M47.8801 13.1097C47.8801 13.1426 47.8801 13.1755 47.8474 13.2083C47.8146 13.2412 47.7819 13.274 47.7492 13.274C47.6837 13.3069 47.6183 13.3069 47.5201 13.3069C47.4219 13.3069 47.3237 13.3397 47.1928 13.3397C47.0619 13.3397 46.931 13.3397 46.8655 13.3069C46.7674 13.3069 46.7019 13.274 46.6692 13.274C46.6037 13.2412 46.571 13.2412 46.571 13.2083C46.5383 13.1755 46.5383 13.1426 46.5383 13.1097V7.22831L44.4765 13.0769C44.4765 13.1097 44.4437 13.1755 44.411 13.2083C44.3783 13.2412 44.3456 13.274 44.2801 13.274C44.2146 13.3069 44.1492 13.3069 44.051 13.3069C43.9528 13.3069 43.8546 13.3069 43.7237 13.3069C43.5928 13.3069 43.4946 13.3069 43.3965 13.3069C43.2983 13.3069 43.2328 13.274 43.1674 13.274C43.1019 13.2412 43.0692 13.2412 43.0365 13.2083C43.0037 13.1755 42.971 13.1426 42.971 13.1097L40.9746 7.26117V13.1097C40.9746 13.1426 40.9746 13.1755 40.9419 13.2083C40.9092 13.2412 40.8765 13.274 40.8437 13.274C40.7783 13.3069 40.7128 13.3069 40.6146 13.3069C40.5165 13.3069 40.4183 13.3397 40.2874 13.3397C40.1565 13.3397 40.0256 13.3397 39.9601 13.3069C39.8619 13.3069 39.7965 13.274 39.731 13.274C39.6656 13.2412 39.6328 13.2412 39.6328 13.2083C39.6001 13.1755 39.6001 13.1426 39.6001 13.1097V6.70259C39.6001 6.50545 39.6656 6.37403 39.7637 6.27545C39.8619 6.17688 39.9928 6.11117 40.1565 6.11117H41.1056C41.2692 6.11117 41.4328 6.11116 41.531 6.14402C41.6619 6.17688 41.7601 6.20974 41.8583 6.27545C41.9565 6.34117 42.0219 6.43974 42.0874 6.53831C42.1528 6.63688 42.1856 6.76831 42.251 6.9326L43.7892 11.204H43.8219L45.4256 6.9326C45.4583 6.76831 45.5237 6.63688 45.5892 6.53831C45.6546 6.43974 45.7201 6.34117 45.7855 6.27545C45.851 6.20974 45.9492 6.17688 46.0474 6.14402C46.1455 6.11116 46.2765 6.11117 46.4074 6.11117H47.3892C47.4874 6.11117 47.5856 6.11116 47.651 6.14402C47.7165 6.17688 47.7819 6.20974 47.8146 6.24259C47.8474 6.27545 47.8801 6.34117 47.9128 6.43974C47.9455 6.50545 47.9455 6.60402 47.9455 6.70259V13.1097H47.8801ZM56.1601 9.62688C56.1601 10.2183 56.0946 10.744 55.931 11.2369C55.7674 11.6969 55.571 12.124 55.2765 12.4197C54.9819 12.7483 54.6219 13.0112 54.1965 13.1755C53.771 13.3397 53.2801 13.4383 52.691 13.4383C52.1346 13.4383 51.6437 13.3726 51.2183 13.2083C50.7928 13.0769 50.4655 12.8469 50.171 12.5512C49.9092 12.2555 49.6801 11.8612 49.5492 11.4012C49.4183 10.9412 49.3528 10.3826 49.3528 9.75831C49.3528 9.16688 49.4183 8.64116 49.5819 8.18116C49.7455 7.72116 49.9419 7.32688 50.2365 6.99831C50.531 6.66974 50.891 6.40688 51.3165 6.24259C51.7419 6.07831 52.2328 5.97974 52.8219 5.97974C53.3783 5.97974 53.8365 6.04545 54.2619 6.20974C54.6874 6.34116 55.0146 6.57116 55.3092 6.86688C55.6037 7.16259 55.8001 7.55688 55.931 8.01688C56.0619 8.44402 56.1601 9.0026 56.1601 9.62688ZM54.6219 9.6926C54.6219 9.33117 54.5892 8.96974 54.5237 8.67402C54.4583 8.37831 54.3601 8.11545 54.2292 7.88545C54.0983 7.65545 53.9019 7.49116 53.6728 7.35974C53.4437 7.22831 53.1492 7.19545 52.7892 7.19545C52.4292 7.19545 52.1346 7.26117 51.9056 7.39259C51.6765 7.52402 51.4801 7.72117 51.3165 7.95117C51.1528 8.18117 51.0546 8.44403 50.9892 8.73974C50.9237 9.03545 50.891 9.36402 50.891 9.6926C50.891 10.0869 50.9237 10.4483 50.9892 10.744C51.0546 11.0726 51.1528 11.3355 51.2837 11.5326C51.4146 11.7626 51.611 11.9269 51.8401 12.0255C52.0692 12.1569 52.3637 12.1897 52.7237 12.1897C53.0837 12.1897 53.3783 12.124 53.6074 11.9926C53.8365 11.8612 54.0328 11.664 54.1965 11.434C54.3601 11.204 54.4583 10.9412 54.5237 10.6455C54.5892 10.3497 54.6219 10.0212 54.6219 9.6926ZM62.8037 11.1383C62.8037 11.4012 62.771 11.6312 62.7055 11.8283C62.6401 12.0255 62.5419 12.2226 62.411 12.3869C62.2801 12.5512 62.1492 12.6826 61.9528 12.814C61.7892 12.9455 61.5928 13.0112 61.3965 13.1097C61.2001 13.1755 60.971 13.2412 60.7419 13.274C60.5128 13.3069 60.251 13.3397 59.9565 13.3397H58.0583C57.9274 13.3397 57.8292 13.3069 57.7637 13.2412C57.6655 13.1755 57.6328 13.044 57.6328 12.8797V6.57117C57.6328 6.40688 57.6655 6.27545 57.7637 6.20974C57.8619 6.14402 57.9601 6.11117 58.0583 6.11117H59.8583C60.2837 6.11117 60.6765 6.14402 60.971 6.20974C61.2655 6.27545 61.5274 6.40688 61.7237 6.53831C61.9201 6.70259 62.0837 6.86688 62.2146 7.09688C62.3128 7.32688 62.3783 7.58974 62.3783 7.91831C62.3783 8.0826 62.3455 8.24688 62.3128 8.41117C62.2801 8.57545 62.2146 8.70688 62.1164 8.83831C62.0183 8.96974 61.9201 9.06831 61.7892 9.16688C61.6583 9.26545 61.5274 9.33117 61.3637 9.39688C61.5601 9.42974 61.7565 9.49545 61.9201 9.59402C62.0837 9.69259 62.2474 9.79117 62.3783 9.95545C62.5092 10.0869 62.6074 10.284 62.6728 10.4812C62.771 10.6783 62.8037 10.9083 62.8037 11.1383ZM60.9383 8.11545C60.9383 7.98402 60.9055 7.85259 60.8728 7.72117C60.8401 7.62259 60.7746 7.52403 60.6765 7.42545C60.5783 7.35974 60.4801 7.29403 60.3492 7.26117C60.2183 7.22831 60.0219 7.19545 59.8255 7.19545H59.1055V9.06831H59.9237C60.1201 9.06831 60.3165 9.03545 60.4146 9.00259C60.5455 8.96974 60.6437 8.87117 60.7419 8.80545C60.8401 8.70688 60.8728 8.60831 60.9383 8.50974C60.9056 8.34545 60.9383 8.24688 60.9383 8.11545ZM61.2983 11.204C61.2983 11.0397 61.2655 10.8755 61.2001 10.744C61.1346 10.6126 61.0692 10.514 60.971 10.4155C60.8728 10.3169 60.7419 10.2512 60.5783 10.2183C60.4146 10.1855 60.1855 10.1526 59.9237 10.1526H59.0728V12.1897H60.1201C60.3165 12.1897 60.4801 12.1569 60.6437 12.124C60.7746 12.0912 60.9055 12.0255 61.0037 11.9269C61.1019 11.8283 61.1674 11.7297 61.2328 11.6312C61.2983 11.4997 61.2983 11.3355 61.2983 11.204ZM65.7164 13.1097C65.7164 13.1426 65.7165 13.1755 65.6837 13.2083C65.651 13.2412 65.6183 13.274 65.5528 13.274C65.4874 13.3069 65.4219 13.3069 65.3237 13.3069C65.2255 13.3069 65.1274 13.3397 64.9637 13.3397C64.8328 13.3397 64.7019 13.3397 64.6037 13.3069C64.5055 13.3069 64.4401 13.274 64.3746 13.274C64.3092 13.2412 64.2764 13.2412 64.2437 13.2083C64.211 13.1755 64.211 13.1426 64.211 13.1097V6.30831C64.211 6.27545 64.211 6.24259 64.2437 6.20974C64.2764 6.17688 64.3092 6.14402 64.3746 6.14402C64.4401 6.11116 64.5055 6.11117 64.6037 6.11117C64.7019 6.11117 64.8001 6.07831 64.9637 6.07831C65.0946 6.07831 65.2255 6.07831 65.3237 6.11117C65.4219 6.11117 65.4874 6.14402 65.5528 6.14402C65.6183 6.17688 65.651 6.17688 65.6837 6.20974C65.7165 6.24259 65.7164 6.27545 65.7164 6.30831V13.1097ZM71.4764 12.6826C71.4764 12.7812 71.4764 12.8797 71.4764 12.9783C71.4764 13.044 71.4437 13.1097 71.4437 13.1755C71.411 13.2412 71.411 13.274 71.3783 13.274C71.3455 13.3069 71.3128 13.3069 71.2801 13.3069H68.0074C67.8764 13.3069 67.7783 13.274 67.7128 13.2083C67.6146 13.1426 67.5819 13.0112 67.5819 12.8469V6.30831C67.5819 6.27545 67.5819 6.24259 67.6146 6.20974C67.6474 6.17688 67.6801 6.14402 67.7455 6.14402C67.811 6.11116 67.8765 6.11117 67.9746 6.11117C68.0728 6.11117 68.171 6.07831 68.3346 6.07831C68.4655 6.07831 68.5965 6.07831 68.6946 6.11117C68.7928 6.11117 68.8583 6.14402 68.9237 6.14402C68.9892 6.17688 69.0219 6.17688 69.0546 6.20974C69.0874 6.24259 69.0874 6.27545 69.0874 6.30831V12.0912H71.3455C71.3783 12.0912 71.411 12.0912 71.4437 12.124C71.4764 12.1569 71.5092 12.1897 71.5092 12.2226C71.5419 12.2555 71.5419 12.3212 71.5419 12.4197C71.4765 12.4855 71.4764 12.584 71.4764 12.6826ZM76.8437 12.7155C76.8437 12.814 76.8437 12.9126 76.8437 12.9783C76.8437 13.044 76.811 13.1097 76.811 13.1426C76.7783 13.1755 76.7783 13.2083 76.7455 13.2412C76.7128 13.274 76.6801 13.274 76.6474 13.274H73.0474C72.9165 13.274 72.8183 13.2412 72.7528 13.1755C72.6546 13.1097 72.6219 12.9783 72.6219 12.814V6.57117C72.6219 6.40688 72.6546 6.27545 72.7528 6.20974C72.851 6.14402 72.9492 6.11117 73.0474 6.11117H76.6146C76.6474 6.11117 76.6801 6.11116 76.7128 6.14402C76.7455 6.17688 76.7455 6.20974 76.7783 6.24259C76.811 6.27545 76.811 6.34117 76.811 6.40688C76.811 6.47259 76.811 6.57117 76.811 6.66974C76.811 6.76831 76.811 6.86688 76.811 6.9326C76.811 6.99831 76.7783 7.06403 76.7783 7.09688C76.7455 7.12974 76.7455 7.16259 76.7128 7.19545C76.6801 7.22831 76.6474 7.22831 76.6146 7.22831H74.0619V8.96974H76.2219C76.2546 8.96974 76.2874 8.96974 76.3201 9.00259C76.3528 9.03545 76.3855 9.06831 76.3855 9.10117C76.4183 9.13402 76.4183 9.19974 76.4183 9.26545C76.4183 9.33117 76.4183 9.42974 76.4183 9.52831C76.4183 9.62688 76.4183 9.72545 76.4183 9.79117C76.4183 9.85688 76.3855 9.9226 76.3855 9.95545C76.3528 9.98831 76.3528 10.0212 76.3201 10.054C76.2874 10.0869 76.2546 10.0869 76.2219 10.0869H74.0619V12.124H76.6474C76.6801 12.124 76.7128 12.124 76.7455 12.1569C76.7783 12.1897 76.811 12.2226 76.811 12.2555C76.8437 12.2883 76.8437 12.354 76.8437 12.4197C76.8437 12.5183 76.8437 12.6169 76.8437 12.7155Z" fill="#201600"/>
<path fill-rule="evenodd" clip-rule="evenodd" d="M87.0218 12.9783H81.36L78.5454 17.874L81.36 22.7697H87.0218L89.8363 17.874L87.0218 12.9783Z" fill="#201600"/>
<path fill-rule="evenodd" clip-rule="evenodd" d="M81.6543 22.3097L79.1016 17.8739L81.6543 13.4382H86.727L89.2797 17.8739L86.727 22.3097H81.6543Z" fill="#FFF343"/>
<path fill-rule="evenodd" clip-rule="evenodd" d="M87.3166 17.8411V17.3154C86.662 17.3154 86.1056 17.7426 85.8438 18.334C85.6147 17.7426 85.0256 17.3154 84.3711 17.3154V17.8411C84.9602 17.8411 85.4511 18.334 85.4511 18.9583C85.4511 19.5826 84.9602 20.0754 84.3711 20.0754V20.6011C85.0256 20.6011 85.582 20.174 85.8438 19.5826C86.0729 20.174 86.662 20.6011 87.3166 20.6011V20.0754C86.7275 20.0754 86.2366 19.5826 86.2366 18.9583C86.2366 18.334 86.7275 17.8411 87.3166 17.8411Z" fill="#201600"/>
<path fill-rule="evenodd" clip-rule="evenodd" d="M83.6509 19.7797C83.4545 20.0425 83.1272 20.2068 82.7345 20.2068C82.1127 20.2068 81.5891 19.6811 81.5891 19.0568C81.5891 18.4654 82.0145 18.0054 82.5709 17.9068H83.6181V17.3154H82.44C82.0145 17.184 81.72 16.7897 81.72 16.3625C81.72 15.804 82.1781 15.344 82.7345 15.344C83.0945 15.344 83.3891 15.5083 83.5854 15.804L84.0109 15.4425C83.7163 15.0483 83.2581 14.7854 82.7672 14.7854C81.9163 14.7854 81.2291 15.4754 81.2291 16.3297C81.2291 16.8554 81.4909 17.3154 81.8836 17.6111C81.3927 17.9068 81.0981 18.4325 81.0981 19.0568C81.0981 20.0097 81.8509 20.7654 82.8 20.7654C83.3563 20.7654 83.8145 20.5025 84.1418 20.1083L83.6509 19.7797Z" fill="#201600"/>
</svg>
