<svg width="57" height="12" viewBox="0 0 57 12" fill="none" xmlns="http://www.w3.org/2000/svg">
<path fill-rule="evenodd" clip-rule="evenodd" d="M47.6007 9.42752L48.4339 5.20425C48.774 4.02922 49.5392 2.95637 50.8656 2.80311C51.4948 2.73499 52.7872 2.71796 53.3993 2.76905L52.6001 4.23357C50.3895 4.26763 50.4235 5.22127 49.9814 7.14559L49.5562 9.4105L47.6007 9.42752ZM13.064 8.03112V9.4105H10.2072C9.20388 9.4105 8.54069 8.76338 8.43867 7.79271C8.40466 7.45212 8.42166 7.07747 8.42166 6.78797V2.76905H10.4622L10.4962 7.36697C10.4962 7.72459 10.7343 8.01409 11.0234 8.03112C11.3295 8.03112 12.6899 8.03112 13.064 8.03112ZM13.064 2.75202H15.1045V9.4105H13.064V2.75202ZM22.0935 2.75202V9.61485L20.0529 11.2326H15.6487L16.4139 9.39347H19.2367C19.7128 9.42752 20.0529 9.29129 20.0359 8.78041V4.79554H18.2844C17.3832 4.84663 17.2642 6.24304 18.4035 6.26007L19.5768 6.27709V8.21844H18.2844C16.5159 8.21844 15.5297 7.14559 15.5637 5.39157C15.5807 4.1314 16.5159 2.82014 18.0464 2.75202H22.0935ZM5.3608 0.708496C5.59887 0.708496 5.83693 0.742556 6.05799 0.810673C7.18031 1.15126 7.89451 2.37737 7.89451 3.68863C7.89451 4.72742 7.53741 5.90245 6.39809 6.26007H6.55113C7.29935 6.26007 7.58843 7.12856 7.58843 7.72459V9.39347H5.3608V7.94597C5.3608 7.33291 5.12273 6.89015 4.71462 6.82203H2.82709V5.28939H4.86766C5.87094 5.28939 6.04099 3.85893 5.63288 3.12666C5.46283 2.78608 5.24177 2.76905 4.85066 2.76905H2.31694V9.39347H0.276367V0.725526C1.77279 0.708497 3.26921 0.708496 4.74863 0.708496C4.95268 0.708496 5.15674 0.708496 5.3608 0.708496ZM36.6496 2.75202H39.7785V4.79554L38.6222 6.92421L36.4626 6.90718L37.6189 4.79554H35.9864C35.5953 4.91475 35.3913 4.96584 35.0682 5.4086C34.7791 5.8173 34.8641 6.5155 35.2042 6.92421C35.4423 7.19668 35.6293 7.28183 35.8674 7.33292H39.6595L40.8158 9.4105H35.9184H35.9014H35.8844C34.7791 9.37644 32.8575 8.11626 32.8575 6.02165C32.8575 5.01692 33.3337 4.14843 33.9799 3.58646C35.0001 2.6839 35.8504 2.75202 36.6496 2.75202ZM45.22 9.4105H47.0735L47.1076 6.07274C47.1076 4.2506 45.5771 2.75202 43.7066 2.75202C41.8361 2.75202 40.3056 4.2506 40.3056 6.07274C40.3056 7.91191 41.8361 9.39347 43.7066 9.39347C44.1997 9.39347 44.6589 9.22317 45.084 9.03585L45.22 9.4105ZM43.6896 4.71039C44.5058 4.71039 45.169 5.34048 45.169 6.03868C45.169 6.73689 44.5058 7.43509 43.6896 7.43509C42.8734 7.43509 42.2102 6.73689 42.2102 6.03868C42.2102 5.34048 42.8734 4.71039 43.6896 4.71039Z" fill="#201600"/>
<path fill-rule="evenodd" clip-rule="evenodd" d="M25.5626 0.827148H29.9839C31.3273 0.827148 32.1775 1.321 32.1775 2.83661V3.70511H30.1709C30.1369 3.12611 30.0179 2.78552 29.3547 2.78552H26.0558C25.1205 2.78552 25.0015 2.87067 25.0015 3.96055V6.36169C25.0015 7.43454 25.1375 7.55374 26.2088 7.55374H29.3377C30.409 7.55374 30.1539 6.99177 30.1879 6.15734H26.3108L27.3651 4.62469H32.1775V6.17437C32.1775 6.92366 32.1605 7.38345 32.1605 7.55374C32.1605 8.72877 31.3783 9.49509 30.1029 9.49509H25.7327C24.1002 9.46103 22.9949 8.81391 23.0119 7.23019V3.22829C23.0289 1.45724 24.0662 0.827148 25.5626 0.827148Z" fill="#E9A744"/>
<path fill-rule="evenodd" clip-rule="evenodd" d="M55.0655 0.844238C55.2186 0.844238 55.3716 0.878297 55.5076 0.929385C55.6437 0.980473 55.7797 1.06562 55.8817 1.18483C55.9838 1.287 56.0688 1.42324 56.1368 1.55947C56.1878 1.69571 56.2218 1.84897 56.2218 2.00224C56.2218 2.1555 56.1878 2.30876 56.1368 2.445C56.0858 2.58123 56.0008 2.71747 55.8817 2.81965C55.7797 2.92182 55.6437 3.00697 55.5076 3.07509C55.3716 3.12617 55.2186 3.16023 55.0655 3.16023C54.9125 3.16023 54.7594 3.12617 54.6234 3.07509C54.4873 3.024 54.3513 2.93885 54.2493 2.81965C54.1472 2.71747 54.0622 2.58123 53.9942 2.445C53.9432 2.30876 53.9092 2.1555 53.9092 2.00224C53.9092 1.84897 53.9432 1.69571 53.9942 1.55947C54.0452 1.42324 54.1302 1.287 54.2493 1.18483C54.3513 1.08265 54.4873 0.997503 54.6234 0.929385C54.7594 0.861268 54.9125 0.844238 55.0655 0.844238ZM54.4873 2.68341V1.25294H55.1165C55.2356 1.25294 55.3376 1.26997 55.4056 1.287C55.4736 1.32106 55.5246 1.35512 55.5586 1.42324C55.5927 1.49135 55.6097 1.55947 55.6097 1.64462C55.6097 1.74679 55.5756 1.83194 55.5076 1.90006C55.4396 1.96818 55.3376 2.01926 55.2015 2.03629C55.2526 2.05332 55.2866 2.08738 55.3206 2.10441C55.3716 2.1555 55.4226 2.22362 55.4736 2.29173L55.7287 2.68341L55.7457 2.66638C55.8307 2.58123 55.9157 2.46203 55.9498 2.34282C56.0008 2.22362 56.0178 2.10441 56.0178 1.96818C56.0178 1.83194 55.9838 1.71273 55.9498 1.59353C55.8987 1.47432 55.8307 1.37215 55.7457 1.26997C55.6607 1.18483 55.5416 1.09968 55.4226 1.06562C55.3036 1.01453 55.1845 0.997502 55.0485 0.997502C54.9125 0.997502 54.7934 1.03156 54.6744 1.06562C54.5554 1.11671 54.4533 1.18483 54.3513 1.26997C54.2663 1.35512 54.1813 1.47432 54.1472 1.59353C54.0962 1.71273 54.0792 1.83194 54.0792 1.96818C54.0792 2.10441 54.1132 2.22362 54.1472 2.34282C54.1983 2.46203 54.2663 2.5642 54.3513 2.66638C54.4363 2.75153 54.5554 2.83667 54.6744 2.87073C54.7934 2.92182 54.9125 2.93885 55.0485 2.93885C55.1845 2.93885 55.3036 2.90479 55.4226 2.87073C55.5416 2.81964 55.6437 2.75153 55.7287 2.66638H55.4906L55.3036 2.37688C55.2526 2.29173 55.2015 2.22362 55.1675 2.17253C55.1335 2.12144 55.0995 2.08738 55.0655 2.07035C55.0315 2.05332 55.0145 2.03629 54.9805 2.03629C54.9635 2.03629 54.9295 2.03629 54.8785 2.03629H54.6574V2.66638H54.4873V2.68341ZM54.6744 1.88303H55.0825C55.1675 1.88303 55.2356 1.866 55.2866 1.84897C55.3376 1.83194 55.3716 1.79788 55.4056 1.76382C55.4226 1.72976 55.4396 1.67868 55.4396 1.62759C55.4396 1.55947 55.4226 1.50838 55.3716 1.4573C55.3206 1.40621 55.2526 1.38918 55.1335 1.38918H54.6744V1.88303Z" fill="#201600"/>
</svg>
