<?xml version="1.0" encoding="utf-8"?>
<!-- Generator: Adobe Illustrator 21.0.0, SVG Export Plug-In . SVG Version: 6.00 Build 0)  -->
<svg version="1.1" id="Layer_1" xmlns="http://www.w3.org/2000/svg" xmlns:xlink="http://www.w3.org/1999/xlink" x="0px" y="0px"
	 viewBox="0 0 20 20" style="enable-background:new 0 0 20 20;" xml:space="preserve">
<style type="text/css">
	.st0{fill:#313131;}
</style>
<path class="st0" d="M19.5,10c0-5.2-4.3-9.5-9.5-9.5S0.5,4.8,0.5,10c0,2.6,1.1,5.2,3.1,7l0.4,0.3c0.2,0.1,0.3,0.3,0.5,0.4l0.2,0.1
	c0.2,0.1,0.4,0.2,0.6,0.4l0.1,0.1c0.2,0.1,0.4,0.2,0.7,0.4c0.7,0.3,1.5,0.6,2.4,0.7c0.3,0,0.5,0.1,0.9,0.1c0.3,0,0.5,0,0.8,0
	c0.3,0,0.5,0,0.9,0c0.3,0,0.5-0.1,0.8-0.1c0.8-0.1,1.5-0.4,2.3-0.7c0.2-0.1,0.4-0.2,0.6-0.3l0.2-0.1c0.2-0.1,0.4-0.2,0.5-0.3
	l0.2-0.1c0.2-0.1,0.3-0.2,0.4-0.3l0.9-0.7l0,0C18.5,14.8,19.5,12.5,19.5,10z M15.5,15.6l-2.8-1.4c-0.1,0-0.1-0.1-0.1-0.2v-0.8
	c0,0,0.1-0.1,0.1-0.2c0.3-0.5,0.6-1,0.9-1.6c0.5-0.3,0.8-0.8,0.8-1.4V8.9c0-0.3-0.1-0.7-0.3-0.9l0-1.3c0-0.2,0.1-1.4-0.7-2.3
	c-0.7-0.8-1.8-1.2-3.3-1.2S7.4,3.5,6.7,4.3C5.9,5.3,6,6.4,6,6.6v1.4C5.8,8.2,5.7,8.5,5.7,8.9V10c0,0.5,0.2,0.9,0.5,1.2
	c0.3,0.9,0.7,1.6,1,2V14c0,0.1,0,0.2-0.1,0.2l-2.5,1.4C3,14.1,2.2,12.1,2.2,10c0-4.3,3.5-7.8,7.8-7.8c4.3,0,7.8,3.5,7.8,7.8
	C17.8,12.1,17,14.1,15.5,15.6C15.5,15.6,15.5,15.6,15.5,15.6z"/>
</svg>
